<?xml version="1.0" encoding="utf-8"?>
<!-- Generator: Adobe Illustrator 19.1.0, SVG Export Plug-In . SVG Version: 6.00 Build 0)  -->
<svg version="1.1" xmlns="http://www.w3.org/2000/svg" xmlns:xlink="http://www.w3.org/1999/xlink" x="0px" y="0px"
	 viewBox="0 0 28 28" enable-background="new 0 0 28 28" xml:space="preserve">
<g id="BG" display="none">
</g>
<g id="Layer_1">
	<g>
		<g>
			<path fill="#FFFFFF" d="M14,1.5C7.1,1.5,1.5,7.1,1.5,14c0,6.9,5.6,12.5,12.5,12.5c6.9,0,12.5-5.6,12.5-12.5
				C26.5,7.1,20.9,1.5,14,1.5z M19.7,19.5c-0.2,0.4-0.7,0.5-1.1,0.3c-2.9-1.8-6.6-2.2-11-1.2c-0.4,0.1-0.8-0.2-0.9-0.6
				c-0.1-0.4,0.2-0.8,0.6-0.9c4.8-1.1,8.8-0.6,12.1,1.4C19.8,18.7,20,19.2,19.7,19.5z M21.3,16.1c-0.3,0.5-0.9,0.6-1.3,0.3
				c-3.4-2.1-8.5-2.7-12.5-1.5c-0.5,0.2-1.1-0.1-1.2-0.6c-0.2-0.5,0.1-1.1,0.6-1.2c4.5-1.4,10.2-0.7,14,1.7
				C21.4,15.1,21.5,15.7,21.3,16.1z M21.4,12.6c-4-2.4-10.7-2.6-14.5-1.4c-0.6,0.2-1.3-0.2-1.5-0.8C5.2,9.7,5.6,9.1,6.2,8.9
				c4.4-1.3,11.8-1.1,16.4,1.7c0.6,0.3,0.7,1,0.4,1.6C22.7,12.7,21.9,12.9,21.4,12.6z"/>
		</g>
	</g>
</g>
</svg>
